<svg id="Layer_4" data-name="Layer 4" xmlns="http://www.w3.org/2000/svg" viewBox="0 0 100 100"><defs><style>.cls-1,.cls-2{fill:none;stroke:#fff;stroke-miterlimit:10;stroke-width:3px;}.cls-1{stroke-linecap:round;}</style></defs><title>weather_symbols_2</title><path class="cls-1" d="M27,55a14,14,0,0,1-5-11,15,15,0,0,1,26-9"/><path class="cls-2" d="M84,61a26,26,0,0,0-50-6c-8,1-14,9-14,17s7,17,16,17H84c7,0,13-6,13-14S92,61,84,61Z"/><line class="cls-1" x1="18" y1="43" x2="4" y2="43"/><line class="cls-1" x1="36" y1="25" x2="36" y2="11"/><line class="cls-1" x1="23" y1="56" x2="16" y2="63"/><line class="cls-1" x1="55" y1="23" x2="49" y2="30"/><line class="cls-1" x1="23" y1="30" x2="17" y2="24"/></svg>