<svg id="Layer_3" data-name="Layer 3" xmlns="http://www.w3.org/2000/svg" viewBox="0 0 100 100"><defs><style>.cls-1,.cls-2{fill:none;stroke:#000;stroke-linejoin:round;stroke-width:3px;}.cls-1{stroke-linecap:square;}.cls-2{stroke-linecap:round;}</style></defs><title>0</title><path class="cls-1" d="M57.72,58.84a21.54,21.54,0,0,0-42.44-5.23c-6.46,1-11.41,7.13-11.41,13.86,0,7.44,6,14,13.06,14H57.32A11.33,11.33,0,0,0,68.49,70.16C68.49,64.21,63.67,58.84,57.72,58.84Z"/><path class="cls-2" d="M71,64.49H85.58c6.35,0,11.17-5.62,11.17-11.57S91.94,41.47,86,41.47a21.59,21.59,0,0,0-21.54-21.6c-10.09,0-16.76,6.12-19.1,15.49"/></svg>