<svg id="Layer_9" data-name="Layer 9" xmlns="http://www.w3.org/2000/svg" viewBox="0 0 100 100"><defs><style>.cls-1{fill:none;stroke-width:3px;}.cls-1,.cls-2{stroke:#fff;stroke-miterlimit:10;}.cls-2{fill:#fff;}</style></defs><title>weather_symbols_2</title><path class="cls-1" d="M82,38a32,32,0,0,0-63-8C10,31,2,41,2,51s9,21,20,21H82c9,0,16-9,16-17S91,38,82,38Z"/><path class="cls-2" d="M27,81a3,3,0,1,1-6,0c0-2,3-5,3-5S27,80,27,81Z"/><path class="cls-2" d="M36,92a3,3,0,1,1-6,0c0-2,3-5,3-5S36,91,36,92Z"/><path class="cls-2" d="M44,82a3,3,0,1,1-6,0c0-2,3-5,3-5S44,80,44,82Z"/><path class="cls-2" d="M62,82a3,3,0,1,1-6,0c0-2,3-5,3-5S62,80,62,82Z"/><path class="cls-2" d="M71,93a3,3,0,1,1-6,0c0-2,3-5,3-5S71,91,71,93Z"/><path class="cls-2" d="M54,93a3,3,0,1,1-6,0c0-2,3-5,3-5S54,91,54,93Z"/><path class="cls-2" d="M79,82a3,3,0,1,1-6,0c0-2,3-5,3-5S79,81,79,82Z"/></svg>