<svg id="Layer_9" data-name="Layer 9" xmlns="http://www.w3.org/2000/svg" viewBox="0 0 100 100"><defs><style>.cls-1{fill:none;stroke:#000;stroke-miterlimit:10;stroke-width:3px;}</style></defs><title>0</title><path class="cls-1" d="M81.8,37.69A31.79,31.79,0,0,0,19.17,30C9.63,31.43,2.32,41.18,2.32,51.13c0,11,8.9,21.39,19.87,21.39H81.8c8.78,0,15.9-8.64,15.9-17.42S90.58,37.69,81.8,37.69Z"/><path d="M27.12,81.12a3,3,0,1,1-5.94,0c0-1.67,3.11-5.36,3.11-5.36S27.09,79.57,27.12,81.12Z"/><path d="M35.69,92.4a3,3,0,1,1-5.94,0c0-1.67,3.11-5.36,3.11-5.36S35.66,90.85,35.69,92.4Z"/><path d="M43.94,81.87a3,3,0,1,1-5.94,0c0-1.67,3.11-5.36,3.11-5.36S43.91,80.33,43.94,81.87Z"/><path d="M62.38,81.56a3,3,0,1,1-5.94,0c0-1.67,3.11-5.36,3.11-5.36S62.35,80,62.38,81.56Z"/><path d="M71,92.84a3,3,0,1,1-5.94,0c0-1.67,3.11-5.36,3.11-5.36S70.93,91.3,71,92.84Z"/><path d="M53.94,92.84a3,3,0,1,1-5.94,0c0-1.67,3.11-5.36,3.11-5.36S53.92,91.3,53.94,92.84Z"/><path d="M79.2,82.32a3,3,0,1,1-5.94,0c0-1.67,3.11-5.36,3.11-5.36S79.17,80.77,79.2,82.32Z"/></svg>