<svg id="Layer_3_copy" data-name="Layer 3 copy" xmlns="http://www.w3.org/2000/svg" viewBox="0 0 100 100"><defs><style>.cls-1{fill:none;stroke:#000;stroke-miterlimit:10;stroke-width:3px;}.cls-2{fill:#fff;}</style></defs><title>0</title><path class="cls-1" d="M80,36.24A30.23,30.23,0,0,0,20.43,28.9c-9.07,1.39-16,9.74-16,19.19,0,10.43,8.46,19.41,18.89,19.41H80c8.35,0,15.11-7.29,15.11-15.63S88.33,36.24,80,36.24Z"/><polygon class="cls-2" points="37.27 81 32.99 81 36.31 71 38.89 71 34.09 81 37.76 81 36.69 82.59 37.27 81"/><polygon points="41.31 70 35.24 70 30.9 83 35.09 83 30.19 95.89 40.52 80 36.51 80 41.31 70 41.31 70"/><polygon class="cls-2" points="62.85 81 58.57 81 61.89 71 64.47 71 59.67 81 63.34 81 62.27 82.59 62.85 81"/><polygon points="66.89 70 60.81 70 56.48 83 60.67 83 55.77 95.89 66.1 80 62.09 80 66.89 70 66.89 70"/></svg>