<svg id="Layer_3_copy" data-name="Layer 3 copy" xmlns="http://www.w3.org/2000/svg" viewBox="0 0 100 100"><defs><style>.cls-1{fill:none;stroke:#fff;stroke-miterlimit:10;stroke-width:3px;}.cls-2{fill:#fff;}</style></defs><title>weather_symbols_2</title><path class="cls-1" d="M80,36a30,30,0,0,0-60-7C11,30,4,39,4,48s8,19,19,19H80c8,0,15-7,15-16S88,36,80,36Z"/><polygon class="cls-2" points="37 81 33 81 36 71 39 71 34 81 38 81 37 83 37 81"/><polygon class="cls-2" points="41 70 35 70 31 83 35 83 30 96 41 80 37 80 41 70 41 70"/><polygon class="cls-2" points="63 81 59 81 62 71 64 71 60 81 63 81 62 83 63 81"/><polygon class="cls-2" points="67 70 61 70 56 83 61 83 56 96 66 80 62 80 67 70 67 70"/></svg>