<svg id="Layer_8" data-name="Layer 8" xmlns="http://www.w3.org/2000/svg" viewBox="0 0 100 100"><defs><style>.cls-1,.cls-2{fill:none;stroke:#fff;stroke-miterlimit:10;}.cls-2{stroke-width:3px;}</style></defs><title>weather_symbols_2</title><circle class="cls-1" cx="79" cy="94" r="1"/><circle class="cls-1" cx="67" cy="94" r="1"/><circle class="cls-1" cx="55" cy="94" r="1"/><circle class="cls-1" cx="43" cy="94" r="1"/><circle class="cls-1" cx="31" cy="94" r="1"/><circle class="cls-1" cx="19" cy="94" r="1"/><circle class="cls-1" cx="24" cy="89" r="1"/><circle class="cls-1" cx="36" cy="89" r="1"/><circle class="cls-1" cx="48" cy="89" r="1"/><circle class="cls-1" cx="60" cy="89" r="1"/><circle class="cls-1" cx="72" cy="89" r="1"/><circle class="cls-1" cx="84" cy="89" r="1"/><circle class="cls-1" cx="79" cy="84" r="1"/><circle class="cls-1" cx="67" cy="84" r="1"/><circle class="cls-1" cx="55" cy="84" r="1"/><circle class="cls-1" cx="43" cy="84" r="1"/><circle class="cls-1" cx="31" cy="84" r="1"/><circle class="cls-1" cx="19" cy="84" r="1"/><circle class="cls-1" cx="24" cy="79" r="1"/><circle class="cls-1" cx="36" cy="79" r="1"/><circle class="cls-1" cx="48" cy="79" r="1"/><circle class="cls-1" cx="60" cy="79" r="1"/><circle class="cls-1" cx="72" cy="79" r="1"/><circle class="cls-1" cx="84" cy="79" r="1"/><circle class="cls-1" cx="79" cy="74" r="1"/><circle class="cls-1" cx="67" cy="74" r="1"/><circle class="cls-1" cx="55" cy="74" r="1"/><circle class="cls-1" cx="43" cy="74" r="1"/><circle class="cls-1" cx="31" cy="74" r="1"/><circle class="cls-1" cx="19" cy="74" r="1"/><path class="cls-2" d="M81,38a31,31,0,0,0-61-7C11,31,4,41,4,50s9,20,19,20H81c9,0,15-8,15-16S89,38,81,38Z"/></svg>