<svg id="Layer_8" data-name="Layer 8" xmlns="http://www.w3.org/2000/svg" viewBox="0 0 100 100"><defs><style>.cls-1,.cls-2{fill:none;stroke:#000;stroke-miterlimit:10;}.cls-2{stroke-width:3px;}</style></defs><title>0</title><circle class="cls-1" cx="78.69" cy="94.47" r="0.58"/><circle class="cls-1" cx="66.69" cy="94.47" r="0.58"/><circle class="cls-1" cx="54.69" cy="94.47" r="0.58"/><circle class="cls-1" cx="42.69" cy="94.47" r="0.58"/><circle class="cls-1" cx="30.69" cy="94.47" r="0.58"/><circle class="cls-1" cx="18.69" cy="94.47" r="0.58"/><circle class="cls-1" cx="23.69" cy="89.47" r="0.58"/><circle class="cls-1" cx="35.69" cy="89.47" r="0.58"/><circle class="cls-1" cx="47.69" cy="89.47" r="0.58"/><circle class="cls-1" cx="59.69" cy="89.47" r="0.58"/><circle class="cls-1" cx="71.69" cy="89.47" r="0.58"/><circle class="cls-1" cx="83.69" cy="89.47" r="0.58"/><circle class="cls-1" cx="78.69" cy="84.47" r="0.58"/><circle class="cls-1" cx="66.69" cy="84.47" r="0.58"/><circle class="cls-1" cx="54.69" cy="84.47" r="0.58"/><circle class="cls-1" cx="42.69" cy="84.47" r="0.58"/><circle class="cls-1" cx="30.69" cy="84.47" r="0.58"/><circle class="cls-1" cx="18.69" cy="84.47" r="0.58"/><circle class="cls-1" cx="23.69" cy="79.47" r="0.58"/><circle class="cls-1" cx="35.69" cy="79.47" r="0.58"/><circle class="cls-1" cx="47.69" cy="79.47" r="0.58"/><circle class="cls-1" cx="59.69" cy="79.47" r="0.58"/><circle class="cls-1" cx="71.69" cy="79.47" r="0.58"/><circle class="cls-1" cx="83.69" cy="79.47" r="0.58"/><circle class="cls-1" cx="78.69" cy="74.47" r="0.58"/><circle class="cls-1" cx="66.69" cy="74.47" r="0.58"/><circle class="cls-1" cx="54.69" cy="74.47" r="0.58"/><circle class="cls-1" cx="42.69" cy="74.47" r="0.58"/><circle class="cls-1" cx="30.69" cy="74.47" r="0.58"/><circle class="cls-1" cx="18.69" cy="74.47" r="0.58"/><path class="cls-2" d="M80.92,37.55a30.84,30.84,0,0,0-60.76-7.49C10.91,31.48,3.82,40.54,3.82,50.19c0,10.64,8.63,20.35,19.27,20.35H80.92c8.52,0,15.42-8,15.42-16.49S89.44,37.55,80.92,37.55Z"/></svg>