<svg id="Layer_11" data-name="Layer 11" xmlns="http://www.w3.org/2000/svg" viewBox="0 0 100 100"><defs><style>.cls-1,.cls-2{fill:none;stroke:#000;stroke-linecap:round;stroke-width:3px;}.cls-1{stroke-miterlimit:10;}.cls-2{stroke-linejoin:bevel;}</style></defs><title>0</title><path class="cls-1" d="M12.32,86.39a81.43,81.43,0,0,0,18.32,2c18.57-.12,27.29-6.71,44.36-4.77a60,60,0,0,1,12.86,2.93"/><path class="cls-1" d="M12.32,76.39a81.43,81.43,0,0,0,18.32,2c18.57-.12,27.29-6.71,44.36-4.77a60,60,0,0,1,12.86,2.93"/><path class="cls-1" d="M12.32,66.39a81.43,81.43,0,0,0,18.32,2c18.57-.12,27.29-6.71,44.36-4.77a60,60,0,0,1,12.86,2.93"/><path class="cls-2" d="M88,61.3a14,14,0,0,0,3.13-9c-0.26-6.43-5.83-12.47-13.92-14.42a27.85,27.85,0,0,0-54.86-6.76c-8.64,2.72-14.52,9.92-14.75,17.7-0.2,6.73,3.91,11.52,5.09,12.81"/></svg>