<svg id="Layer_11" data-name="Layer 11" xmlns="http://www.w3.org/2000/svg" viewBox="0 0 100 100"><defs><style>.cls-1,.cls-2{fill:none;stroke:#fff;stroke-linecap:round;stroke-width:3px;}.cls-1{stroke-miterlimit:10;}.cls-2{stroke-linejoin:bevel;}</style></defs><title>weather_symbols_2</title><path class="cls-1" d="M12,86l18,2c19,0,27-7,44-5l13,3"/><path class="cls-1" d="M12,76l18,2c19,0,27-7,44-5l13,3"/><path class="cls-1" d="M12,66l18,2c19,0,27-7,44-5l13,3"/><path class="cls-2" d="M88,61a14,14,0,0,0,3-9c0-6-6-12-14-14a28,28,0,0,0-55-7C14,34,8,41,8,49s4,12,5,13"/></svg>