<svg id="Layer_15" data-name="Layer 15" xmlns="http://www.w3.org/2000/svg" viewBox="0 0 100 100"><defs><style>.cls-1,.cls-2{fill:#fff;}.cls-2{stroke:#fff;stroke-linecap:round;stroke-linejoin:round;stroke-width:2px;}</style></defs><title>edit</title><path class="cls-1" d="M88,31a11,11,0,0,1-2,5l-2,2-2,2L59,19c3-3,5-6,10-7h3a11,11,0,0,1,6,3l6,7,2,3v6Z"/><path class="cls-2" d="M9,90l2-6,5-18h0L34,84H30L10,91H9Z"/><path class="cls-1" d="M59,18l4,4H63L23,62H19a2,2,0,0,1,0-3h1L59,19h1Z"/><path class="cls-1" d="M78,37l4,4H81L42,80H37a2,2,0,0,1,0-3h0L77,37h1Z"/></svg>